<?xml version="1.0" encoding="UTF-8" standalone="no"?>
<!-- Created with Inkscape (http://www.inkscape.org/) -->

<svg
   xmlns:dc="http://purl.org/dc/elements/1.1/"
   xmlns:cc="http://creativecommons.org/ns#"
   xmlns:rdf="http://www.w3.org/1999/02/22-rdf-syntax-ns#"
   xmlns:svg="http://www.w3.org/2000/svg"
   xmlns="http://www.w3.org/2000/svg"
   xmlns:sodipodi="http://sodipodi.sourceforge.net/DTD/sodipodi-0.dtd"
   xmlns:inkscape="http://www.inkscape.org/namespaces/inkscape"
   width="320"
   height="160"
   id="svg2"
   version="1.1"
   inkscape:version="0.48.5 r10040"
   sodipodi:docname="superpowers-splash.svg">
  <defs
     id="defs4" />
  <sodipodi:namedview
     id="base"
     pagecolor="#ffffff"
     bordercolor="#666666"
     borderopacity="1.0"
     inkscape:pageopacity="0.0"
     inkscape:pageshadow="2"
     inkscape:zoom="2"
     inkscape:cx="178.78076"
     inkscape:cy="117.69615"
     inkscape:document-units="px"
     inkscape:current-layer="layer1"
     showgrid="false"
     borderlayer="true"
     showborder="true"
     inkscape:showpageshadow="false"
     inkscape:window-width="1680"
     inkscape:window-height="1028"
     inkscape:window-x="-8"
     inkscape:window-y="-8"
     inkscape:window-maximized="1" />
  <metadata
     id="metadata7">
    <rdf:RDF>
      <cc:Work
         rdf:about="">
        <dc:format>image/svg+xml</dc:format>
        <dc:type
           rdf:resource="http://purl.org/dc/dcmitype/StillImage" />
        <dc:title></dc:title>
      </cc:Work>
    </rdf:RDF>
  </metadata>
  <g
     inkscape:label="Layer 1"
     inkscape:groupmode="layer"
     id="layer1"
     transform="translate(0,-892.36215)">
    <g
       id="g3013"
       transform="translate(-142.75003,556.94272)">
      <g
         style="font-size:48px;font-style:normal;font-variant:normal;font-weight:bold;font-stretch:normal;text-align:center;line-height:125%;letter-spacing:0px;word-spacing:0px;text-anchor:middle;fill:#88aa00;fill-opacity:1;stroke:none;font-family:Roboto;-inkscape-font-specification:Roboto Bold"
         id="text2985">
        <path
           d="m 192.82816,399.39938 c -3e-5,-1.31249 -0.46487,-2.36717 -1.39454,-3.16406 -0.9297,-0.79686 -2.55861,-1.54686 -4.88671,-2.25 -4.06252,-1.17186 -7.13283,-2.56248 -9.21094,-4.17187 -2.07813,-1.60936 -3.11719,-3.81248 -3.11719,-6.60938 0,-2.79685 1.1914,-5.082 3.57422,-6.85547 2.3828,-1.7734 5.42577,-2.66012 9.12891,-2.66015 3.74998,3e-5 6.80466,0.99612 9.16406,2.98828 2.35935,1.99221 3.49997,4.44924 3.42187,7.37109 l -0.0469,0.14063 -6.63281,0 c -3e-5,-1.5781 -0.52737,-2.85545 -1.58204,-3.83204 -1.0547,-0.97653 -2.53517,-1.46481 -4.4414,-1.46484 -1.82814,3e-5 -3.2422,0.40628 -4.24219,1.21875 -1.00001,0.81253 -1.50001,1.85159 -1.5,3.11719 -1e-5,1.15627 0.53515,2.10549 1.60547,2.84765 1.0703,0.74221 2.91795,1.52737 5.54297,2.35547 3.7656,1.0469 6.61716,2.42971 8.55469,4.14844 1.93747,1.71877 2.90622,3.97658 2.90625,6.77344 -3e-5,2.92188 -1.15238,5.22656 -3.45704,6.91406 -2.30471,1.6875 -5.34767,2.53125 -9.1289,2.53125 -3.71876,0 -6.96095,-0.95703 -9.72656,-2.87109 -2.76563,-1.91406 -4.10938,-4.59765 -4.03125,-8.05078 l 0.0469,-0.14063 6.65625,0 c -1e-5,2.03126 0.62108,3.51954 1.86328,4.46484 1.24218,0.94532 2.97264,1.41798 5.19141,1.41797 1.85936,10e-6 3.28123,-0.3828 4.26562,-1.14843 0.98436,-0.76562 1.47654,-1.78906 1.47657,-3.07032 z"
           style=""
           id="path3925" />
        <path
           d="m 219.80472,404.64938 c -0.78127,1.32813 -1.77346,2.35157 -2.97656,3.07032 -1.20314,0.71875 -2.58595,1.07812 -4.14844,1.07812 -2.67189,0 -4.76173,-0.85547 -6.26953,-2.56641 -1.50782,-1.71093 -2.26172,-4.37108 -2.26172,-7.98046 l 0,-15.30469 6.82031,0 0,15.35156 c -1e-5,1.84376 0.31249,3.16798 0.9375,3.97266 0.62499,0.80469 1.54686,1.20703 2.76563,1.20703 1.09373,0 2.03123,-0.17578 2.8125,-0.52735 0.78123,-0.35155 1.42185,-0.87108 1.92187,-1.55859 l 0,-18.44531 6.84375,0 0,25.35937 -5.83594,0 z"
           style=""
           id="path3927" />
        <path
           d="m 254.28128,396.32907 c -2e-5,3.75001 -0.86721,6.76563 -2.60156,9.04688 -1.7344,2.28125 -4.15627,3.42187 -7.26563,3.42187 -1.32814,0 -2.50782,-0.24609 -3.53906,-0.73828 -1.03126,-0.49219 -1.91407,-1.21484 -2.64844,-2.16797 l 0,12.16406 -6.82031,0 0,-35.10937 6.16406,0 0.39844,3 c 0.74999,-1.10935 1.65233,-1.96482 2.70703,-2.56641 1.05468,-0.60153 2.28514,-0.90232 3.69141,-0.90234 3.1406,2e-5 5.5781,1.22659 7.3125,3.67969 1.73435,2.45314 2.60154,5.6797 2.60156,9.67968 z m -6.84375,-0.49219 c -2e-5,-2.39061 -0.39846,-4.3281 -1.19531,-5.8125 -0.79689,-1.48435 -2.01564,-2.22654 -3.65625,-2.22656 -1.03126,2e-5 -1.91017,0.21096 -2.63672,0.63281 -0.72657,0.4219 -1.30079,1.02346 -1.72266,1.80469 l 0,11.10938 c 0.42187,0.71875 0.99609,1.26563 1.72266,1.64062 0.72655,0.37501 1.62108,0.56251 2.68359,0.5625 1.65624,10e-6 2.87108,-0.64843 3.64453,-1.94531 0.77342,-1.29687 1.16014,-3.05468 1.16016,-5.27344 z"
           style=""
           id="path3929" />
        <path
           d="m 269.72659,408.79782 c -3.65626,0 -6.57813,-1.17187 -8.76562,-3.51562 -2.1875,-2.34375 -3.28125,-5.32031 -3.28125,-8.92969 l 0,-0.9375 c 0,-3.76561 1.03515,-6.86717 3.10547,-9.30469 2.0703,-2.43747 4.84764,-3.64841 8.33203,-3.63281 3.42186,2e-5 6.0781,1.03127 7.96875,3.09375 1.8906,2.06252 2.83591,4.85158 2.83594,8.36719 l 0,3.72656 -15.14063,0 -0.0469,0.14062 c 0.12499,1.67189 0.68358,3.04689 1.67578,4.125 0.99217,1.07813 2.33983,1.6172 4.04297,1.61719 1.5156,10e-6 2.77342,-0.15234 3.77343,-0.45703 0.99998,-0.30468 2.09373,-0.78515 3.28125,-1.44141 l 1.85157,4.21875 c -1.03128,0.84376 -2.38284,1.54297 -4.05469,2.09766 -1.67189,0.55469 -3.53127,0.83203 -5.57813,0.83203 z m -0.60937,-21.04687 c -1.26564,2e-5 -2.26564,0.48439 -3,1.45312 -0.73439,0.96877 -1.18751,2.24221 -1.35938,3.82031 l 0.0703,0.11719 8.39062,0 0,-0.60937 c -2e-5,-1.45311 -0.33986,-2.61327 -1.01953,-3.48047 -0.6797,-0.86717 -1.70705,-1.30076 -3.08203,-1.30078 z"
           style=""
           id="path3931" />
        <path
           d="m 297.24222,388.82907 -2.50781,-0.0703 c -1.01564,2e-5 -1.85158,0.21096 -2.50782,0.63281 -0.65626,0.42189 -1.15626,1.01564 -1.5,1.78125 l 0,17.13281 -6.82031,0 0,-25.35937 6.35156,0 0.30469,3.75 c 0.59374,-1.3281 1.36327,-2.36326 2.30859,-3.10547 0.9453,-0.74216 2.03515,-1.11326 3.26954,-1.11328 0.34373,2e-5 0.66014,0.0274 0.94921,0.082 0.28905,0.0547 0.58202,0.12112 0.87891,0.19922 z"
           style=""
           id="path3933" />
        <path
           d="m 323.56253,396.32907 c -2e-5,3.75001 -0.86721,6.76563 -2.60156,9.04688 -1.7344,2.28125 -4.15627,3.42187 -7.26563,3.42187 -1.32814,0 -2.50782,-0.24609 -3.53906,-0.73828 -1.03126,-0.49219 -1.91407,-1.21484 -2.64844,-2.16797 l 0,12.16406 -6.82031,0 0,-35.10937 6.16406,0 0.39844,3 c 0.74999,-1.10935 1.65233,-1.96482 2.70703,-2.56641 1.05468,-0.60153 2.28514,-0.90232 3.69141,-0.90234 3.1406,2e-5 5.5781,1.22659 7.3125,3.67969 1.73435,2.45314 2.60154,5.6797 2.60156,9.67968 z m -6.84375,-0.49219 c -2e-5,-2.39061 -0.39846,-4.3281 -1.19531,-5.8125 -0.79689,-1.48435 -2.01564,-2.22654 -3.65625,-2.22656 -1.03126,2e-5 -1.91017,0.21096 -2.63672,0.63281 -0.72657,0.4219 -1.30079,1.02346 -1.72266,1.80469 l 0,11.10938 c 0.42187,0.71875 0.99609,1.26563 1.72266,1.64062 0.72655,0.37501 1.62108,0.56251 2.68359,0.5625 1.65624,10e-6 2.87108,-0.64843 3.64453,-1.94531 0.77342,-1.29687 1.16014,-3.05468 1.16016,-5.27344 z"
           style=""
           id="path3935" />
        <path
           d="m 326.72659,395.39157 c 0,-3.78123 1.05469,-6.87889 3.16407,-9.29297 2.10936,-2.41404 5.03124,-3.62107 8.76562,-3.62109 3.74998,2e-5 6.68748,1.20315 8.8125,3.60937 2.12498,2.40627 3.18748,5.50783 3.1875,9.30469 l 0,0.49219 c -2e-5,3.81251 -1.05862,6.91797 -3.17578,9.3164 -2.11721,2.39844 -5.04299,3.59766 -8.77734,3.59766 -3.75001,0 -6.68361,-1.19922 -8.80079,-3.59766 -2.11719,-2.39843 -3.17578,-5.50389 -3.17578,-9.3164 z m 6.82032,0.49219 c -1e-5,2.31251 0.40624,4.16798 1.21875,5.5664 0.81249,1.39845 2.12498,2.09767 3.9375,2.09766 1.76561,10e-6 3.05857,-0.70312 3.8789,-2.10937 0.8203,-1.40625 1.23045,-3.25781 1.23047,-5.55469 l 0,-0.49219 c -2e-5,-2.24998 -0.41408,-4.08592 -1.24219,-5.50781 -0.82814,-1.42186 -2.13282,-2.13279 -3.91406,-2.13281 -1.76564,2e-5 -3.0586,0.71486 -3.87891,2.14453 -0.82032,1.4297 -1.23047,3.26173 -1.23046,5.49609 z"
           style=""
           id="path3937" />
        <path
           d="m 376.92972,399.23532 0.14062,0 3.30469,-16.28906 6.42188,0 -6.44532,25.35937 -5.71875,0 -4.71093,-15.09375 -0.14063,0 -4.71094,15.09375 -5.69531,0 -6.44531,-25.35937 6.42187,0 3.35157,16.24219 0.14062,0 4.73438,-16.24219 4.57031,0 z"
           style=""
           id="path3939" />
        <path
           d="m 401.44534,408.79782 c -3.65626,0 -6.57813,-1.17187 -8.76562,-3.51562 -2.1875,-2.34375 -3.28125,-5.32031 -3.28125,-8.92969 l 0,-0.9375 c 0,-3.76561 1.03515,-6.86717 3.10547,-9.30469 2.0703,-2.43747 4.84764,-3.64841 8.33203,-3.63281 3.42186,2e-5 6.0781,1.03127 7.96875,3.09375 1.8906,2.06252 2.83591,4.85158 2.83594,8.36719 l 0,3.72656 -15.14063,0 -0.0469,0.14062 c 0.12499,1.67189 0.68358,3.04689 1.67578,4.125 0.99217,1.07813 2.33983,1.6172 4.04297,1.61719 1.5156,10e-6 2.77342,-0.15234 3.77343,-0.45703 0.99998,-0.30468 2.09373,-0.78515 3.28125,-1.44141 l 1.85157,4.21875 c -1.03128,0.84376 -2.38284,1.54297 -4.05469,2.09766 -1.67189,0.55469 -3.53127,0.83203 -5.57813,0.83203 z m -0.60937,-21.04687 c -1.26564,2e-5 -2.26564,0.48439 -3,1.45312 -0.73439,0.96877 -1.18751,2.24221 -1.35938,3.82031 l 0.0703,0.11719 8.39062,0 0,-0.60937 c -2e-5,-1.45311 -0.33986,-2.61327 -1.01953,-3.48047 -0.6797,-0.86717 -1.70705,-1.30076 -3.08203,-1.30078 z"
           style=""
           id="path3941" />
        <path
           d="m 428.96097,388.82907 -2.50781,-0.0703 c -1.01564,2e-5 -1.85158,0.21096 -2.50782,0.63281 -0.65626,0.42189 -1.15626,1.01564 -1.5,1.78125 l 0,17.13281 -6.82031,0 0,-25.35937 6.35156,0 0.30469,3.75 c 0.59374,-1.3281 1.36327,-2.36326 2.30859,-3.10547 0.9453,-0.74216 2.03515,-1.11326 3.26954,-1.11328 0.34373,2e-5 0.66014,0.0274 0.94921,0.082 0.28905,0.0547 0.58202,0.12112 0.87891,0.19922 z"
           style=""
           id="path3943" />
        <path
           d="m 446.11722,401.32126 c -2e-5,-0.74999 -0.3633,-1.39843 -1.08985,-1.94531 -0.72657,-0.54687 -2.07423,-1.03124 -4.04296,-1.45313 -3.00001,-0.60936 -5.26173,-1.51171 -6.78516,-2.70703 -1.52344,-1.1953 -2.28516,-2.8242 -2.28516,-4.88672 0,-2.18748 0.91797,-4.04295 2.75391,-5.56641 1.83593,-1.52341 4.29296,-2.28513 7.37109,-2.28515 3.23436,2e-5 5.80858,0.75784 7.72266,2.27344 1.91404,1.51564 2.83201,3.4297 2.75391,5.74218 l -0.0469,0.14063 -6.60937,0 c -2e-5,-1.01561 -0.32424,-1.84373 -0.97266,-2.48438 -0.64845,-0.6406 -1.59767,-0.96091 -2.84766,-0.96093 -1.10938,2e-5 -1.98048,0.26955 -2.61328,0.80859 -0.63282,0.53908 -0.94923,1.21486 -0.94922,2.02734 -10e-6,0.78127 0.33203,1.4219 0.9961,1.92188 0.66405,0.50001 2.0117,0.94533 4.04297,1.33594 3.12498,0.62501 5.44529,1.54298 6.96093,2.7539 1.51561,1.21095 2.27342,2.87892 2.27344,5.00391 -2e-5,2.28125 -0.97658,4.14453 -2.92969,5.58984 -1.95314,1.44532 -4.53126,2.16797 -7.73437,2.16797 -3.37501,0 -6.04298,-0.85547 -8.00391,-2.56641 -1.96094,-1.71093 -2.89453,-3.66015 -2.80078,-5.84765 l 0.0469,-0.14063 6.25781,0 c 0.0469,1.35939 0.49218,2.34376 1.33594,2.95313 0.84374,0.60938 1.9453,0.91407 3.30468,0.91406 1.26561,10e-6 2.23046,-0.24999 2.89453,-0.75 0.66405,-0.49999 0.99608,-1.17968 0.9961,-2.03906 z"
           style=""
           id="path3945" />
      </g>
      <g
         style="font-size:24px;font-style:normal;font-variant:normal;font-weight:300;font-stretch:normal;text-align:center;line-height:125%;letter-spacing:0px;word-spacing:0px;text-anchor:middle;fill:#445500;fill-opacity:1;stroke:none;font-family:Roboto;-inkscape-font-specification:Roboto Light"
         id="text2993">
        <path
           d="m 328.61331,354.31638 6.26953,15.02343 0.0703,0 6.29296,-15.02343 1.85157,0 0,17.0625 -1.39453,0 0,-7.53516 0.11718,-7.46484 -0.0703,-0.0234 -6.33984,15.02344 -0.97266,0 -6.32812,-14.95313 -0.0703,0.0117 0.12891,7.40625 0,7.53516 -1.39453,0 0,-17.0625 z"
           style=""
           id="path3948" />
        <path
           d="m 356.75003,366.62106 -7.81641,0 -1.75781,4.75782 -1.45312,0 6.48047,-17.0625 1.32421,0 6.4336,17.0625 -1.45313,0 z m -7.34766,-1.2539 6.89063,0 -3.39844,-9.23438 -0.0703,0 z"
           style=""
           id="path3950" />
        <path
           d="m 362.58597,371.37888 0,-17.0625 4.95703,0 c 2.08593,1e-5 3.80858,0.69532 5.16797,2.08593 1.35936,1.39064 2.03905,3.1758 2.03906,5.35547 l 0,2.19141 c -10e-6,2.1875 -0.6797,3.97266 -2.03906,5.35547 -1.35939,1.38281 -3.08204,2.07422 -5.16797,2.07422 z m 1.39453,-15.86719 0,14.68359 3.5625,0 c 1.68749,0 3.07616,-0.58984 4.16601,-1.76953 1.08984,-1.17968 1.63476,-2.67187 1.63477,-4.47656 l 0,-2.22656 c -10e-6,-1.78124 -0.54689,-3.26171 -1.64062,-4.44141 -1.09376,-1.17967 -2.48048,-1.76952 -4.16016,-1.76953 z"
           style=""
           id="path3952" />
        <path
           d="m 387.94534,363.11716 -8.21484,0 0,7.07812 9.41016,0 0,1.1836 -10.80469,0 0,-17.0625 10.74609,0 0,1.19531 -9.35156,0 0,6.41015 8.21484,0 z"
           style=""
           id="path3954" />
        <path
           d="m 401.00003,366.55075 0.51563,2.61328 0.0703,0.0117 0.64453,-2.625 3.60937,-12.23437 1.32422,0 3.60938,12.23437 0.62109,2.63672 0.0703,-0.0117 0.55079,-2.625 3.08203,-12.23437 1.42968,0 -4.38281,17.0625 -1.32422,0 -3.83203,-13.08985 -0.44531,-1.79297 -0.0703,0 -0.4336,1.79297 -3.86718,13.08985 -1.33594,0 -4.38281,-17.0625 1.4414,0 z"
           style=""
           id="path3956" />
        <path
           d="m 421.25003,371.37888 -1.40625,0 0,-17.0625 1.40625,0 z"
           style=""
           id="path3958" />
        <path
           d="m 437.49222,355.51169 -5.8711,0 0,15.86719 -1.40625,0 0,-15.86719 -5.87109,0 0,-1.19531 13.14844,0 z"
           style=""
           id="path3960" />
        <path
           d="m 452.75003,371.37888 -1.39453,0 0,-7.85157 -9.70313,0 0,7.85157 -1.39453,0 0,-17.0625 1.39453,0 0,8.01562 9.70313,0 0,-8.01562 1.39453,0 z"
           style=""
           id="path3962" />
      </g>
    </g>
    <g
       style="font-size:16px;font-style:normal;font-variant:normal;font-weight:300;font-stretch:normal;text-align:end;line-height:125%;letter-spacing:0px;word-spacing:0px;text-anchor:end;fill:#484537;fill-opacity:1;stroke:none;font-family:Roboto;-inkscape-font-specification:Roboto Light"
       id="text2997">
      <path
         d="m 64.796875,999.43402 0,2.16408 1.859375,0 0,0.7656 -1.859375,0 0,5.5078 c -3e-6,0.5521 0.100258,0.944 0.300781,1.1758 0.200518,0.2318 0.467445,0.3477 0.800781,0.3477 0.151038,0 0.298173,-0.01 0.441407,-0.02 0.143225,-0.013 0.308589,-0.035 0.496093,-0.066 l 0.140625,0.6953 c -0.156254,0.068 -0.346358,0.1198 -0.570312,0.1563 -0.223962,0.036 -0.447921,0.055 -0.671875,0.055 -0.593753,0 -1.055992,-0.1875 -1.386719,-0.5625 -0.330731,-0.375 -0.496095,-0.9688 -0.496094,-1.7813 l 0,-5.5078 -1.460937,0 0,-0.7656 1.460937,0 0,-2.16408 z"
         style=""
         id="path3965" />
      <path
         d="m 69.578125,1003.0434 c 0.281248,-0.5052 0.656247,-0.8984 1.125,-1.1797 0.468746,-0.2812 1.015621,-0.4219 1.640625,-0.4219 0.890619,0 1.574212,0.2761 2.050781,0.8282 0.476555,0.552 0.714836,1.4088 0.714844,2.5703 l 0,5.2109 -0.9375,0 0,-5.2266 c -7e-6,-0.9166 -0.180996,-1.5742 -0.542969,-1.9726 -0.361985,-0.3984 -0.860682,-0.5977 -1.496094,-0.5977 -0.640629,0 -1.175784,0.168 -1.605468,0.5039 -0.42969,0.336 -0.746096,0.7826 -0.949219,1.3399 l 0,5.9531 -0.9375,0 0,-12.18749 0.9375,0 z"
         style=""
         id="path3967" />
      <path
         d="m 80.71875,1010.2153 c -1.057295,0 -1.9362,-0.3907 -2.636719,-1.1719 -0.700522,-0.7813 -1.050782,-1.7708 -1.050781,-2.9688 l 0,-0.4296 c -10e-7,-1.2084 0.347655,-2.211 1.042969,-3.0079 0.69531,-0.7968 1.537757,-1.1953 2.527343,-1.1953 1.036454,0 1.851557,0.3282 2.445313,0.9844 0.593743,0.6563 0.890617,1.5313 0.890625,2.625 l 0,0.7969 -5.96875,0 0,0.2265 c -2e-6,0.9532 0.252602,1.75 0.757812,2.3907 0.505206,0.6406 1.169268,0.9609 1.992188,0.9609 0.583328,0 1.080724,-0.081 1.492187,-0.2422 0.411453,-0.1614 0.763015,-0.3932 1.054688,-0.6953 l 0.398437,0.6406 c -0.317715,0.3334 -0.720058,0.5977 -1.207031,0.793 -0.486985,0.1953 -1.066411,0.293 -1.738281,0.293 z m -0.117188,-7.9766 c -0.692711,0 -1.27344,0.2643 -1.742187,0.793 -0.468752,0.5286 -0.742189,1.1914 -0.820313,1.9883 l 0.01563,0.039 4.953125,0 0,-0.2344 c -6e-6,-0.7343 -0.216152,-1.3489 -0.648437,-1.8437 -0.432297,-0.4948 -1.018234,-0.7422 -1.757813,-0.7422 z"
         style=""
         id="path3969" />
      <path
         d="m 94.765625,1007.9028 c -6e-6,-0.3959 -0.162767,-0.7422 -0.488281,-1.0391 -0.325527,-0.2969 -0.912766,-0.5391 -1.761719,-0.7266 -1.01042,-0.2187 -1.756513,-0.5078 -2.238281,-0.8671 -0.481772,-0.3594 -0.722658,-0.8672 -0.722657,-1.5235 -10e-7,-0.6458 0.272135,-1.1914 0.816407,-1.6367 0.544268,-0.4453 1.264319,-0.668 2.160156,-0.668 0.95312,0 1.708328,0.2357 2.265625,0.7071 0.557285,0.4713 0.82291,1.0612 0.796875,1.7695 l -0.01563,0.047 -0.867188,0 c -6e-6,-0.4636 -0.19662,-0.8672 -0.589843,-1.211 -0.393235,-0.3437 -0.923182,-0.5156 -1.589844,-0.5156 -0.682295,0 -1.194013,0.1472 -1.535156,0.4414 -0.341148,0.2943 -0.511721,0.6393 -0.511719,1.0352 -2e-6,0.3906 0.147133,0.7135 0.441406,0.9687 0.294268,0.2552 0.881507,0.4792 1.761719,0.6719 1.005203,0.224 1.757807,0.5299 2.257812,0.918 0.499994,0.388 0.749993,0.9153 0.75,1.582 -7e-6,0.7031 -0.285163,1.2721 -0.855468,1.707 -0.570319,0.4349 -1.324224,0.6524 -2.261719,0.6524 -1.026045,0 -1.832034,-0.2448 -2.417969,-0.7344 -0.585938,-0.4896 -0.863282,-1.0729 -0.832031,-1.75 l 0.01563,-0.047 0.859375,0 c 0.03646,0.6094 0.285154,1.0521 0.746094,1.3281 0.460934,0.2761 1.003903,0.4141 1.628906,0.4141 0.677079,0 1.210932,-0.1484 1.601562,-0.4453 0.390619,-0.2969 0.585932,-0.6563 0.585938,-1.0781 z"
         style=""
         id="path3971" />
      <path
         d="m 98.90625,1010.0512 -0.929688,0 0,-8.4531 0.929688,0 z m 0,-10.87499 -0.929688,0 0,-1.3125 0.929688,0 z"
         style=""
         id="path3973" />
      <path
         d="m 102.27344,1001.5981 0.0859,1.3984 c 0.27083,-0.4948 0.6315,-0.8776 1.08203,-1.1484 0.45051,-0.2708 0.98827,-0.4063 1.61328,-0.4063 0.64583,0 1.18619,0.1563 1.62109,0.4688 0.43489,0.3125 0.74609,0.7891 0.9336,1.4297 0.2552,-0.5938 0.61848,-1.0586 1.08984,-1.3946 0.47134,-0.3359 1.04556,-0.5039 1.72266,-0.5039 0.90103,0 1.59634,0.2995 2.08593,0.8985 0.48957,0.5989 0.73436,1.526 0.73438,2.7812 l 0,4.9297 -0.9375,0 0,-4.9453 c -10e-6,-1.0417 -0.18361,-1.7773 -0.55078,-2.207 -0.3672,-0.4297 -0.87892,-0.6446 -1.53516,-0.6446 -0.72397,0 -1.28386,0.2266 -1.67969,0.6797 -0.39584,0.4532 -0.64063,1.0339 -0.73437,1.7422 -10e-6,0.037 0.001,0.089 0.004,0.1563 0.003,0.068 0.004,0.1172 0.004,0.1484 l 0,5.0703 -0.94531,0 0,-4.9453 c -10e-6,-1.0208 -0.18621,-1.7513 -0.5586,-2.1914 -0.3724,-0.4401 -0.88412,-0.6602 -1.53515,-0.6602 -0.66146,0 -1.1862,0.168 -1.57422,0.5039 -0.38802,0.336 -0.66016,0.7878 -0.81641,1.3555 l 0,5.9375 -0.94531,0 0,-8.4531 z"
         style=""
         id="path3975" />
      <path
         d="m 122.47656,1006.059 c -1e-5,1.2656 -0.28646,2.2748 -0.85937,3.0274 -0.57293,0.7526 -1.36199,1.1289 -2.36719,1.1289 -0.59375,0 -1.11328,-0.112 -1.55859,-0.336 -0.44532,-0.2239 -0.8086,-0.5442 -1.08985,-0.9609 l 0,4.3828 -0.9375,0 0,-11.7031 0.78907,0 0.11718,1.3125 c 0.28125,-0.4688 0.64453,-0.8307 1.08985,-1.086 0.44531,-0.2552 0.97004,-0.3828 1.57422,-0.3828 1.01561,0 1.80988,0.405 2.38281,1.2149 0.57291,0.8099 0.85936,1.8893 0.85937,3.2383 z m -0.9375,-0.164 c 0,-1.073 -0.21355,-1.948 -0.64062,-2.625 -0.42709,-0.6771 -1.05209,-1.0157 -1.875,-1.0157 -0.63021,0 -1.14193,0.1498 -1.53516,0.4493 -0.39323,0.2994 -0.6888,0.6888 -0.88672,1.1679 l 0,4.0625 c 0.21354,0.4636 0.52214,0.8281 0.92578,1.0938 0.40365,0.2656 0.90755,0.3984 1.51172,0.3984 0.81771,0 1.4388,-0.3073 1.86328,-0.9219 0.42448,-0.6145 0.63672,-1.4297 0.63672,-2.4453 z"
         style=""
         id="path3977" />
      <path
         d="m 125.625,1010.0512 -0.92969,0 0,-12.18749 0.92969,0 z"
         style=""
         id="path3979" />
      <path
         d="m 131.375,1010.2153 c -1.0573,0 -1.9362,-0.3907 -2.63672,-1.1719 -0.70052,-0.7813 -1.05078,-1.7708 -1.05078,-2.9688 l 0,-0.4296 c 0,-1.2084 0.34766,-2.211 1.04297,-3.0079 0.69531,-0.7968 1.53776,-1.1953 2.52734,-1.1953 1.03646,0 1.85156,0.3282 2.44531,0.9844 0.59375,0.6563 0.89062,1.5313 0.89063,2.625 l 0,0.7969 -5.96875,0 0,0.2265 c 0,0.9532 0.2526,1.75 0.75781,2.3907 0.50521,0.6406 1.16927,0.9609 1.99219,0.9609 0.58333,0 1.08072,-0.081 1.49219,-0.2422 0.41145,-0.1614 0.76301,-0.3932 1.05468,-0.6953 l 0.39844,0.6406 c -0.31771,0.3334 -0.72006,0.5977 -1.20703,0.793 -0.48698,0.1953 -1.06641,0.293 -1.73828,0.293 z m -0.11719,-7.9766 c -0.69271,0 -1.27344,0.2643 -1.74219,0.793 -0.46875,0.5286 -0.74218,1.1914 -0.82031,1.9883 l 0.0156,0.039 4.95312,0 0,-0.2344 c 0,-0.7343 -0.21615,-1.3489 -0.64844,-1.8437 -0.43229,-0.4948 -1.01823,-0.7422 -1.75781,-0.7422 z"
         style=""
         id="path3981" />
      <path
         d="m 137.33594,1009.9106 -0.82813,2.1562 -0.64062,0 0.53906,-2.1797 0,-1.3046 0.92969,0 z"
         style=""
         id="path3983" />
      <path
         d="m 146.59375,1010.2153 c -1.0573,0 -1.9362,-0.3907 -2.63672,-1.1719 -0.70052,-0.7813 -1.05078,-1.7708 -1.05078,-2.9688 l 0,-0.4296 c 0,-1.2084 0.34766,-2.211 1.04297,-3.0079 0.69531,-0.7968 1.53776,-1.1953 2.52734,-1.1953 1.03646,0 1.85156,0.3282 2.44531,0.9844 0.59375,0.6563 0.89062,1.5313 0.89063,2.625 l 0,0.7969 -5.96875,0 0,0.2265 c 0,0.9532 0.2526,1.75 0.75781,2.3907 0.50521,0.6406 1.16927,0.9609 1.99219,0.9609 0.58333,0 1.08072,-0.081 1.49219,-0.2422 0.41145,-0.1614 0.76301,-0.3932 1.05468,-0.6953 l 0.39844,0.6406 c -0.31771,0.3334 -0.72006,0.5977 -1.20703,0.793 -0.48698,0.1953 -1.06641,0.293 -1.73828,0.293 z m -0.11719,-7.9766 c -0.69271,0 -1.27344,0.2643 -1.74219,0.793 -0.46875,0.5286 -0.74218,1.1914 -0.82031,1.9883 l 0.0156,0.039 4.95312,0 0,-0.2344 c 0,-0.7343 -0.21615,-1.3489 -0.64844,-1.8437 -0.43229,-0.4948 -1.01823,-0.7422 -1.75781,-0.7422 z"
         style=""
         id="path3985" />
      <path
         d="m 154.32812,1005.0512 2.28907,-3.4531 1.10937,0 -2.86719,4.1484 2.98438,4.3047 -1.09375,0 -2.40625,-3.6016 -2.40625,3.6016 -1.10938,0 2.99219,-4.3047 -2.86719,-4.1484 1.10157,0 z"
         style=""
         id="path3987" />
      <path
         d="m 160.98437,999.43402 0,2.16408 1.85938,0 0,0.7656 -1.85938,0 0,5.5078 c 0,0.5521 0.10026,0.944 0.30079,1.1758 0.20051,0.2318 0.46744,0.3477 0.80078,0.3477 0.15104,0 0.29817,-0.01 0.4414,-0.02 0.14323,-0.013 0.30859,-0.035 0.4961,-0.066 l 0.14062,0.6953 c -0.15625,0.068 -0.34636,0.1198 -0.57031,0.1563 -0.22396,0.036 -0.44792,0.055 -0.67188,0.055 -0.59375,0 -1.05599,-0.1875 -1.38671,-0.5625 -0.33073,-0.375 -0.4961,-0.9688 -0.4961,-1.7813 l 0,-5.5078 -1.46094,0 0,-0.7656 1.46094,0 0,-2.16408 z"
         style=""
         id="path3989" />
      <path
         d="m 168,1010.2153 c -1.0573,0 -1.9362,-0.3907 -2.63672,-1.1719 -0.70052,-0.7813 -1.05078,-1.7708 -1.05078,-2.9688 l 0,-0.4296 c 0,-1.2084 0.34766,-2.211 1.04297,-3.0079 0.69531,-0.7968 1.53776,-1.1953 2.52734,-1.1953 1.03646,0 1.85156,0.3282 2.44531,0.9844 0.59375,0.6563 0.89062,1.5313 0.89063,2.625 l 0,0.7969 -5.96875,0 0,0.2265 c 0,0.9532 0.2526,1.75 0.75781,2.3907 0.50521,0.6406 1.16927,0.9609 1.99219,0.9609 0.58333,0 1.08072,-0.081 1.49219,-0.2422 0.41145,-0.1614 0.76301,-0.3932 1.05468,-0.6953 l 0.39844,0.6406 c -0.31771,0.3334 -0.72006,0.5977 -1.20703,0.793 -0.48698,0.1953 -1.06641,0.293 -1.73828,0.293 z m -0.11719,-7.9766 c -0.69271,0 -1.27344,0.2643 -1.74219,0.793 -0.46875,0.5286 -0.74218,1.1914 -0.82031,1.9883 l 0.0156,0.039 4.95312,0 0,-0.2344 c 0,-0.7343 -0.21615,-1.3489 -0.64844,-1.8437 -0.43229,-0.4948 -1.01823,-0.7422 -1.75781,-0.7422 z"
         style=""
         id="path3991" />
      <path
         d="m 173.90625,1001.5981 0.0859,1.4765 c 0.27083,-0.5208 0.63671,-0.9231 1.09765,-1.207 0.46094,-0.2838 1.00651,-0.4258 1.63672,-0.4258 0.91666,0 1.61458,0.28 2.09375,0.8399 0.47916,0.5599 0.71874,1.4336 0.71875,2.6211 l 0,5.1484 -0.9375,0 0,-5.1406 c 0,-0.9688 -0.18099,-1.6537 -0.54297,-2.0547 -0.36198,-0.401 -0.8763,-0.6016 -1.54297,-0.6016 -0.65625,0 -1.1914,0.1732 -1.60546,0.5196 -0.41407,0.3463 -0.71225,0.806 -0.89454,1.3789 l 0,5.8984 -0.9375,0 0,-8.4531 z"
         style=""
         id="path3993" />
      <path
         d="m 187.04687,1007.9028 c 0,-0.3959 -0.16276,-0.7422 -0.48828,-1.0391 -0.32552,-0.2969 -0.91276,-0.5391 -1.76172,-0.7266 -1.01041,-0.2187 -1.75651,-0.5078 -2.23828,-0.8671 -0.48177,-0.3594 -0.72265,-0.8672 -0.72265,-1.5235 0,-0.6458 0.27213,-1.1914 0.8164,-1.6367 0.54427,-0.4453 1.26432,-0.668 2.16016,-0.668 0.95312,0 1.70833,0.2357 2.26562,0.7071 0.55729,0.4713 0.82291,1.0612 0.79688,1.7695 l -0.0156,0.047 -0.86718,0 c -1e-5,-0.4636 -0.19662,-0.8672 -0.58985,-1.211 -0.39323,-0.3437 -0.92318,-0.5156 -1.58984,-0.5156 -0.6823,0 -1.19401,0.1472 -1.53516,0.4414 -0.34114,0.2943 -0.51172,0.6393 -0.51172,1.0352 0,0.3906 0.14714,0.7135 0.44141,0.9687 0.29427,0.2552 0.88151,0.4792 1.76172,0.6719 1.0052,0.224 1.75781,0.5299 2.25781,0.918 0.5,0.388 0.75,0.9153 0.75,1.582 0,0.7031 -0.28516,1.2721 -0.85547,1.707 -0.57031,0.4349 -1.32422,0.6524 -2.26172,0.6524 -1.02604,0 -1.83203,-0.2448 -2.41796,-0.7344 -0.58594,-0.4896 -0.86329,-1.0729 -0.83204,-1.75 l 0.0156,-0.047 0.85937,0 c 0.0365,0.6094 0.28516,1.0521 0.7461,1.3281 0.46093,0.2761 1.0039,0.4141 1.6289,0.4141 0.67708,0 1.21094,-0.1484 1.60157,-0.4453 0.39062,-0.2969 0.58593,-0.6563 0.58593,-1.0781 z"
         style=""
         id="path3995" />
      <path
         d="m 191.1875,1010.0512 -0.92969,0 0,-8.4531 0.92969,0 z m 0,-10.87499 -0.92969,0 0,-1.3125 0.92969,0 z"
         style=""
         id="path3997" />
      <path
         d="m 200.57812,1006.059 c 0,1.2656 -0.28646,2.2748 -0.85937,3.0274 -0.57292,0.7526 -1.36198,1.1289 -2.36719,1.1289 -0.61979,0 -1.15365,-0.1237 -1.60156,-0.3711 -0.44792,-0.2474 -0.8099,-0.6029 -1.08594,-1.0664 l -0.10156,1.2734 -0.80469,0 0,-12.18749 0.9375,0 0,5.06249 c 0.28125,-0.4739 0.64062,-0.8398 1.07813,-1.0976 0.43749,-0.2579 0.95833,-0.3868 1.5625,-0.3868 1.01562,0 1.80989,0.405 2.38281,1.2149 0.57291,0.8099 0.85937,1.8893 0.85937,3.2383 z m -0.94531,-0.164 c 0,-1.0782 -0.20834,-1.9545 -0.625,-2.6289 -0.41667,-0.6745 -1.03386,-1.0118 -1.85156,-1.0118 -0.65105,0 -1.17578,0.1615 -1.57422,0.4844 -0.39844,0.3229 -0.69401,0.737 -0.88672,1.2422 l 0,3.8203 c 0.20833,0.4896 0.51953,0.8789 0.9336,1.168 0.41406,0.289 0.92838,0.4336 1.54296,0.4336 0.81771,0 1.43229,-0.3021 1.84375,-0.9063 0.41146,-0.6041 0.61719,-1.4166 0.61719,-2.4375 z"
         style=""
         id="path3999" />
      <path
         d="m 203.71875,1010.0512 -0.92969,0 0,-12.18749 0.92969,0 z"
         style=""
         id="path4001" />
      <path
         d="m 209.46875,1010.2153 c -1.0573,0 -1.9362,-0.3907 -2.63672,-1.1719 -0.70052,-0.7813 -1.05078,-1.7708 -1.05078,-2.9688 l 0,-0.4296 c 0,-1.2084 0.34766,-2.211 1.04297,-3.0079 0.69531,-0.7968 1.53776,-1.1953 2.52734,-1.1953 1.03646,0 1.85156,0.3282 2.44531,0.9844 0.59375,0.6563 0.89062,1.5313 0.89063,2.625 l 0,0.7969 -5.96875,0 0,0.2265 c 0,0.9532 0.2526,1.75 0.75781,2.3907 0.50521,0.6406 1.16927,0.9609 1.99219,0.9609 0.58333,0 1.08072,-0.081 1.49219,-0.2422 0.41145,-0.1614 0.76301,-0.3932 1.05468,-0.6953 l 0.39844,0.6406 c -0.31771,0.3334 -0.72006,0.5977 -1.20703,0.793 -0.48698,0.1953 -1.06641,0.293 -1.73828,0.293 z m -0.11719,-7.9766 c -0.69271,0 -1.27344,0.2643 -1.74219,0.793 -0.46875,0.5286 -0.74218,1.1914 -0.82031,1.9883 l 0.0156,0.039 4.95312,0 0,-0.2344 c 0,-0.7343 -0.21615,-1.3489 -0.64844,-1.8437 -0.43229,-0.4948 -1.01823,-0.7422 -1.75781,-0.7422 z"
         style=""
         id="path4003" />
      <path
         d="m 215.42969,1009.9106 -0.82813,2.1562 -0.64062,0 0.53906,-2.1797 0,-1.3046 0.92969,0 z"
         style=""
         id="path4005" />
      <path
         d="m 224.64844,1009.4262 c 0.61978,0 1.16666,-0.1771 1.64062,-0.5312 0.47395,-0.3542 0.71093,-0.8464 0.71094,-1.4766 l 0.82812,0 0.0156,0.047 c 0.026,0.7812 -0.28647,1.4349 -0.9375,1.9609 -0.65105,0.5261 -1.40365,0.7891 -2.25781,0.7891 -1.15105,0 -2.04037,-0.3946 -2.66797,-1.1836 -0.62761,-0.7891 -0.94141,-1.8034 -0.94141,-3.043 l 0,-0.3281 c 0,-1.2292 0.31511,-2.2396 0.94531,-3.0313 0.63021,-0.7916 1.51563,-1.1875 2.65625,-1.1875 0.92708,0 1.69922,0.2735 2.31641,0.8203 0.61718,0.5469 0.91536,1.2657 0.89453,2.1563 l -0.0156,0.047 -0.83594,0 c -1e-5,-0.6771 -0.22787,-1.2175 -0.68359,-1.6211 -0.45574,-0.4037 -1.01433,-0.6055 -1.67579,-0.6055 -0.90625,0 -1.57682,0.3242 -2.01171,0.9727 -0.4349,0.6484 -0.65235,1.4648 -0.65235,2.4492 l 0,0.3281 c 0,1 0.21615,1.8229 0.64844,2.4688 0.43229,0.6458 1.10677,0.9687 2.02344,0.9687 z"
         style=""
         id="path4007" />
      <path
         d="m 229.27344,1005.6996 c 0,-1.2447 0.34114,-2.2656 1.02343,-3.0625 0.68229,-0.7968 1.58594,-1.1953 2.71094,-1.1953 1.13021,0 2.03645,0.3985 2.71875,1.1953 0.68229,0.7969 1.02343,1.8178 1.02344,3.0625 l 0,0.2579 c -1e-5,1.25 -0.33985,2.2721 -1.01953,3.0664 -0.6797,0.7942 -1.58204,1.1914 -2.70703,1.1914 -1.13542,0 -2.04428,-0.3972 -2.72657,-1.1914 -0.68229,-0.7943 -1.02343,-1.8164 -1.02343,-3.0664 z m 0.9375,0.2579 c 0,0.9791 0.24739,1.802 0.74218,2.4687 0.49479,0.6667 1.1849,1 2.07032,1 0.86978,0 1.55338,-0.3333 2.05078,-1 0.49739,-0.6667 0.74609,-1.4896 0.74609,-2.4687 l 0,-0.2579 c 0,-0.9635 -0.25,-1.7812 -0.75,-2.4531 -0.5,-0.6718 -1.1875,-1.0078 -2.0625,-1.0078 -0.875,0 -1.5599,0.336 -2.05469,1.0078 -0.49479,0.6719 -0.74218,1.4896 -0.74218,2.4531 z"
         style=""
         id="path4009" />
      <path
         d="m 239.75,1010.0512 -0.92969,0 0,-12.18749 0.92969,0 z"
         style=""
         id="path4011" />
      <path
         d="m 243.375,1010.0512 -0.92969,0 0,-12.18749 0.92969,0 z"
         style=""
         id="path4013" />
      <path
         d="m 251.30469,1010.0512 c -0.0625,-0.2864 -0.10678,-0.5338 -0.13282,-0.7422 -0.026,-0.2083 -0.0391,-0.4192 -0.0391,-0.6328 -0.3125,0.4427 -0.72917,0.8099 -1.25,1.1016 -0.52084,0.2916 -1.10677,0.4375 -1.75781,0.4375 -0.82292,0 -1.46224,-0.2188 -1.91797,-0.6563 -0.45573,-0.4375 -0.68359,-1.0234 -0.68359,-1.7578 0,-0.7812 0.33724,-1.4062 1.01172,-1.875 0.67447,-0.4687 1.58463,-0.7031 2.73046,-0.7031 l 1.86719,0 0,-1.0469 c 0,-0.6042 -0.19401,-1.0781 -0.58203,-1.4219 -0.38803,-0.3437 -0.93099,-0.5156 -1.62891,-0.5156 -0.65104,0 -1.1914,0.1641 -1.62109,0.4922 -0.42969,0.3281 -0.64453,0.7292 -0.64453,1.2031 l -0.85938,-0.01 -0.0156,-0.047 c -0.0312,-0.6302 0.25651,-1.194 0.86328,-1.6914 0.60677,-0.4974 1.3789,-0.7461 2.31641,-0.7461 0.93228,0 1.68228,0.237 2.25,0.711 0.5677,0.4739 0.85155,1.1536 0.85156,2.039 l 0,4.1563 c -1e-5,0.2969 0.0169,0.5859 0.0508,0.8672 0.0339,0.2812 0.0898,0.5599 0.16797,0.8359 z m -3.07032,-0.6641 c 0.67188,0 1.26563,-0.1575 1.78125,-0.4726 0.51562,-0.3151 0.88802,-0.7175 1.11719,-1.207 l 0,-1.7657 -1.88281,0 c -0.84896,0 -1.52735,0.181 -2.03516,0.543 -0.50781,0.362 -0.76172,0.8112 -0.76172,1.3477 0,0.4583 0.15756,0.832 0.47266,1.1211 0.3151,0.289 0.7513,0.4335 1.30859,0.4335 z"
         style=""
         id="path4015" />
      <path
         d="m 261.35937,1006.059 c 0,1.2656 -0.28646,2.2748 -0.85937,3.0274 -0.57292,0.7526 -1.36198,1.1289 -2.36719,1.1289 -0.61979,0 -1.15365,-0.1237 -1.60156,-0.3711 -0.44792,-0.2474 -0.8099,-0.6029 -1.08594,-1.0664 l -0.10156,1.2734 -0.80469,0 0,-12.18749 0.9375,0 0,5.06249 c 0.28125,-0.4739 0.64062,-0.8398 1.07813,-1.0976 0.43749,-0.2579 0.95833,-0.3868 1.5625,-0.3868 1.01562,0 1.80989,0.405 2.38281,1.2149 0.57291,0.8099 0.85937,1.8893 0.85937,3.2383 z m -0.94531,-0.164 c 0,-1.0782 -0.20834,-1.9545 -0.625,-2.6289 -0.41667,-0.6745 -1.03386,-1.0118 -1.85156,-1.0118 -0.65105,0 -1.17578,0.1615 -1.57422,0.4844 -0.39844,0.3229 -0.69401,0.737 -0.88672,1.2422 l 0,3.8203 c 0.20833,0.4896 0.51953,0.8789 0.9336,1.168 0.41406,0.289 0.92838,0.4336 1.54296,0.4336 0.81771,0 1.43229,-0.3021 1.84375,-0.9063 0.41146,-0.6041 0.61719,-1.4166 0.61719,-2.4375 z"
         style=""
         id="path4017" />
      <path
         d="m 262.92969,1005.6996 c 0,-1.2447 0.34114,-2.2656 1.02343,-3.0625 0.68229,-0.7968 1.58594,-1.1953 2.71094,-1.1953 1.13021,0 2.03645,0.3985 2.71875,1.1953 0.68229,0.7969 1.02343,1.8178 1.02344,3.0625 l 0,0.2579 c -10e-6,1.25 -0.33985,2.2721 -1.01953,3.0664 -0.6797,0.7942 -1.58204,1.1914 -2.70703,1.1914 -1.13542,0 -2.04428,-0.3972 -2.72657,-1.1914 -0.68229,-0.7943 -1.02343,-1.8164 -1.02343,-3.0664 z m 0.9375,0.2579 c 0,0.9791 0.24739,1.802 0.74218,2.4687 0.49479,0.6667 1.1849,1 2.07032,1 0.86978,0 1.55338,-0.3333 2.05078,-1 0.49739,-0.6667 0.74609,-1.4896 0.74609,-2.4687 l 0,-0.2579 c 0,-0.9635 -0.25,-1.7812 -0.75,-2.4531 -0.5,-0.6718 -1.1875,-1.0078 -2.0625,-1.0078 -0.875,0 -1.5599,0.336 -2.05469,1.0078 -0.49479,0.6719 -0.74218,1.4896 -0.74218,2.4531 z"
         style=""
         id="path4019" />
      <path
         d="m 276.25,1002.4028 -0.69531,-0.047 c -0.58855,0 -1.07162,0.1654 -1.44922,0.4961 -0.37761,0.3307 -0.64714,0.7852 -0.8086,1.3633 l 0,5.8359 -0.9375,0 0,-8.4531 0.82032,0 0.11718,1.4062 0,0.094 c 0.24479,-0.5208 0.57292,-0.9271 0.98438,-1.2188 0.41145,-0.2916 0.90104,-0.4375 1.46875,-0.4375 0.11979,0 0.23567,0.01 0.34766,0.027 0.11197,0.018 0.20442,0.038 0.27734,0.059 z"
         style=""
         id="path4021" />
      <path
         d="m 283.14844,1010.0512 c -0.0625,-0.2864 -0.10678,-0.5338 -0.13282,-0.7422 -0.026,-0.2083 -0.0391,-0.4192 -0.0391,-0.6328 -0.3125,0.4427 -0.72917,0.8099 -1.25,1.1016 -0.52084,0.2916 -1.10677,0.4375 -1.75781,0.4375 -0.82292,0 -1.46224,-0.2188 -1.91797,-0.6563 -0.45573,-0.4375 -0.68359,-1.0234 -0.68359,-1.7578 0,-0.7812 0.33724,-1.4062 1.01172,-1.875 0.67447,-0.4687 1.58463,-0.7031 2.73046,-0.7031 l 1.86719,0 0,-1.0469 c 0,-0.6042 -0.19401,-1.0781 -0.58203,-1.4219 -0.38803,-0.3437 -0.93099,-0.5156 -1.62891,-0.5156 -0.65104,0 -1.1914,0.1641 -1.62109,0.4922 -0.42969,0.3281 -0.64453,0.7292 -0.64453,1.2031 l -0.85938,-0.01 -0.0156,-0.047 c -0.0312,-0.6302 0.25651,-1.194 0.86328,-1.6914 0.60677,-0.4974 1.3789,-0.7461 2.31641,-0.7461 0.93228,0 1.68228,0.237 2.25,0.711 0.5677,0.4739 0.85155,1.1536 0.85156,2.039 l 0,4.1563 c -10e-6,0.2969 0.0169,0.5859 0.0508,0.8672 0.0339,0.2812 0.0898,0.5599 0.16797,0.8359 z m -3.07032,-0.6641 c 0.67188,0 1.26563,-0.1575 1.78125,-0.4726 0.51562,-0.3151 0.88802,-0.7175 1.11719,-1.207 l 0,-1.7657 -1.88281,0 c -0.84896,0 -1.52735,0.181 -2.03516,0.543 -0.50781,0.362 -0.76172,0.8112 -0.76172,1.3477 0,0.4583 0.15756,0.832 0.47266,1.1211 0.3151,0.289 0.7513,0.4335 1.30859,0.4335 z"
         style=""
         id="path4023" />
      <path
         d="m 287.85937,999.43402 0,2.16408 1.85938,0 0,0.7656 -1.85938,0 0,5.5078 c 0,0.5521 0.10026,0.944 0.30079,1.1758 0.20051,0.2318 0.46744,0.3477 0.80078,0.3477 0.15104,0 0.29817,-0.01 0.4414,-0.02 0.14323,-0.013 0.30859,-0.035 0.4961,-0.066 l 0.14062,0.6953 c -0.15625,0.068 -0.34636,0.1198 -0.57031,0.1563 -0.22396,0.036 -0.44792,0.055 -0.67188,0.055 -0.59375,0 -1.05599,-0.1875 -1.38671,-0.5625 -0.33073,-0.375 -0.4961,-0.9688 -0.4961,-1.7813 l 0,-5.5078 -1.46094,0 0,-0.7656 1.46094,0 0,-2.16408 z"
         style=""
         id="path4025" />
      <path
         d="m 292.75,1010.0512 -0.92969,0 0,-8.4531 0.92969,0 z m 0,-10.87499 -0.92969,0 0,-1.3125 0.92969,0 z"
         style=""
         id="path4027" />
      <path
         d="m 297.73437,1007.934 0.27344,0.9922 0.0469,0 0.29687,-0.9922 2.29688,-6.3359 0.96875,0 -3.21094,8.4531 -0.75,0 -3.21875,-8.4531 0.96875,0 z"
         style=""
         id="path4029" />
      <path
         d="m 306.34375,1010.2153 c -1.0573,0 -1.9362,-0.3907 -2.63672,-1.1719 -0.70052,-0.7813 -1.05078,-1.7708 -1.05078,-2.9688 l 0,-0.4296 c 0,-1.2084 0.34766,-2.211 1.04297,-3.0079 0.69531,-0.7968 1.53776,-1.1953 2.52734,-1.1953 1.03646,0 1.85156,0.3282 2.44531,0.9844 0.59375,0.6563 0.89062,1.5313 0.89063,2.625 l 0,0.7969 -5.96875,0 0,0.2265 c 0,0.9532 0.2526,1.75 0.75781,2.3907 0.50521,0.6406 1.16927,0.9609 1.99219,0.9609 0.58333,0 1.08072,-0.081 1.49219,-0.2422 0.41145,-0.1614 0.76301,-0.3932 1.05468,-0.6953 l 0.39844,0.6406 c -0.31771,0.3334 -0.72006,0.5977 -1.20703,0.793 -0.48698,0.1953 -1.06641,0.293 -1.73828,0.293 z m -0.11719,-7.9766 c -0.69271,0 -1.27344,0.2643 -1.74219,0.793 -0.46875,0.5286 -0.74218,1.1914 -0.82031,1.9883 l 0.0156,0.039 4.95312,0 0,-0.2344 c 0,-0.7343 -0.21615,-1.3489 -0.64844,-1.8437 -0.43229,-0.4948 -1.01823,-0.7422 -1.75781,-0.7422 z"
         style=""
         id="path4031" />
      <path
         d="m 126.94531,1030.0512 -0.92968,0 0,-5.2344 -6.46875,0 0,5.2344 -0.92969,0 0,-11.375 0.92969,0 0,5.3438 6.46875,0 0,-5.3438 0.92968,0 z"
         style=""
         id="path4033" />
      <path
         d="m 137.55469,1019.4731 -3.91407,0 0,10.5781 -0.9375,0 0,-10.5781 -3.91406,0 0,-0.7969 8.76563,0 z"
         style=""
         id="path4035" />
      <path
         d="m 140.625,1018.6762 4.17969,10.0156 0.0469,0 4.19531,-10.0156 1.23438,0 0,11.375 -0.92969,0 0,-5.0234 0.0781,-4.9766 -0.0469,-0.016 -4.22656,10.0156 -0.64844,0 -4.21875,-9.9687 -0.0469,0.01 0.0859,4.9375 0,5.0234 -0.92968,0 0,-11.375 z"
         style=""
         id="path4037" />
      <path
         d="m 154.21094,1029.2621 5.625,0 0,0.7891 -6.5625,0 0,-11.375 0.9375,0 z"
         style=""
         id="path4039" />
      <path
         d="m 161.69531,1024.9028 0.63281,-6.2266 5.52344,0 0,0.8672 -4.72656,0 -0.42188,4.0547 c 0.28646,-0.2604 0.60156,-0.4609 0.94532,-0.6016 0.34374,-0.1406 0.80989,-0.2187 1.39843,-0.2344 0.96875,-0.016 1.75,0.3099 2.34375,0.9766 0.59375,0.6667 0.89062,1.5625 0.89063,2.6875 -1e-5,1.1511 -0.28777,2.0703 -0.86328,2.7578 -0.57553,0.6875 -1.44141,1.0313 -2.59766,1.0313 -0.9375,0 -1.71875,-0.2617 -2.34375,-0.7852 -0.625,-0.5234 -0.92448,-1.2982 -0.89844,-2.3242 l 0.0156,-0.047 0.83594,0 c 0,0.7656 0.21744,1.3516 0.65234,1.7578 0.43489,0.4063 1.01432,0.6094 1.73828,0.6094 0.84375,0 1.47526,-0.2552 1.89453,-0.7656 0.41927,-0.5104 0.6289,-1.25 0.62891,-2.2188 -1e-5,-0.8489 -0.20964,-1.5299 -0.62891,-2.0429 -0.41927,-0.513 -1.00651,-0.7696 -1.76172,-0.7696 -0.72917,0 -1.28515,0.1159 -1.66796,0.3477 -0.38282,0.2318 -0.66016,0.582 -0.83204,1.0508 z"
         style=""
         id="path4041" />
      <path
         d="m 181.13281,1030.0512 -7.0625,0 0,-0.7187 3.72656,-4.2266 c 0.6875,-0.776 1.17318,-1.4258 1.45704,-1.9492 0.28384,-0.5235 0.42577,-1.0248 0.42578,-1.5039 -1e-5,-0.7084 -0.19923,-1.2761 -0.59766,-1.7032 -0.39844,-0.427 -0.96224,-0.6406 -1.69141,-0.6406 -0.86458,0 -1.52083,0.2396 -1.96875,0.7188 -0.44791,0.4791 -0.67187,1.1198 -0.67187,1.9218 l -0.86719,0 -0.0156,-0.047 c -0.026,-0.9479 0.28125,-1.75 0.92187,-2.4063 0.64063,-0.6562 1.50781,-0.9843 2.60156,-0.9844 0.97917,10e-5 1.76302,0.2813 2.35157,0.8438 0.58853,0.5625 0.8828,1.3177 0.88281,2.2656 -1e-5,0.625 -0.19662,1.2591 -0.58984,1.9024 -0.39324,0.6432 -0.94142,1.3606 -1.64454,2.1523 l -3.13281,3.5469 0.0156,0.039 5.85937,0 z"
         style=""
         id="path4043" />
      <path
         d="m 183.36719,1030.0512 0,-11.375 3.30468,0 c 1.39062,0 2.53906,0.4636 3.44532,1.3906 0.90624,0.9271 1.35936,2.1172 1.35937,3.5703 l 0,1.461 c -1e-5,1.4583 -0.45313,2.6484 -1.35937,3.5703 -0.90626,0.9219 -2.0547,1.3828 -3.44532,1.3828 z m 0.92968,-10.5781 0,9.789 2.375,0 c 1.125,0 2.05078,-0.3932 2.77735,-1.1796 0.72655,-0.7865 1.08983,-1.7813 1.08984,-2.9844 l 0,-1.4844 c -1e-5,-1.1875 -0.36459,-2.1745 -1.09375,-2.9609 -0.72917,-0.7865 -1.65365,-1.1797 -2.77344,-1.1797 z"
         style=""
         id="path4045" />
      <path
         d="m 193.46094,1031.0278 -0.85157,0 4.75,-12.3516 0.84375,0 z"
         style=""
         id="path4047" />
      <path
         d="m 201.86719,1023.8559 1.08593,0 c 0.82812,0 1.45573,-0.207 1.88282,-0.6211 0.42707,-0.4141 0.64062,-0.9466 0.64062,-1.5977 0,-0.7083 -0.20052,-1.2734 -0.60156,-1.6953 -0.40105,-0.4218 -0.9974,-0.6328 -1.78906,-0.6328 -0.72917,0 -1.32683,0.2149 -1.79297,0.6446 -0.46615,0.4296 -0.69922,0.9961 -0.69922,1.6992 l -0.875,0 -0.0156,-0.047 c -0.026,-0.8854 0.28386,-1.6224 0.92969,-2.2109 0.64583,-0.5886 1.46354,-0.8828 2.45313,-0.8829 1.01562,10e-5 1.82421,0.2787 2.42578,0.836 0.60155,0.5573 0.90233,1.3307 0.90234,2.3203 -1e-5,0.5365 -0.16667,1.0404 -0.5,1.5117 -0.33334,0.4714 -0.80209,0.8216 -1.40625,1.0508 0.70833,0.2031 1.23828,0.5456 1.58985,1.0273 0.35155,0.4818 0.52733,1.0508 0.52734,1.7071 -1e-5,1.0104 -0.32683,1.8047 -0.98047,2.3828 -0.65365,0.5781 -1.49349,0.8672 -2.51953,0.8672 -0.9948,0 -1.84896,-0.2826 -2.5625,-0.8477 -0.71354,-0.5651 -1.05729,-1.3502 -1.03125,-2.3555 l 0.0156,-0.047 0.875,0 c 0,0.7239 0.25131,1.3151 0.75391,1.7734 0.5026,0.4583 1.15234,0.6875 1.94922,0.6875 0.80729,0 1.43749,-0.2096 1.89062,-0.6289 0.45312,-0.4193 0.67969,-1.0195 0.67969,-1.8008 0,-0.7969 -0.23698,-1.3867 -0.71094,-1.7695 -0.47396,-0.3828 -1.15104,-0.5742 -2.03125,-0.5742 l -1.08593,0 z"
         style=""
         id="path4049" />
      <path
         d="m 209.08594,1030.0512 0,-11.375 3.30468,0 c 1.39062,0 2.53906,0.4636 3.44532,1.3906 0.90624,0.9271 1.35936,2.1172 1.35937,3.5703 l 0,1.461 c -1e-5,1.4583 -0.45313,2.6484 -1.35937,3.5703 -0.90626,0.9219 -2.0547,1.3828 -3.44532,1.3828 z m 0.92968,-10.5781 0,9.789 2.375,0 c 1.125,0 2.05078,-0.3932 2.77735,-1.1796 0.72655,-0.7865 1.08983,-1.7813 1.08984,-2.9844 l 0,-1.4844 c -1e-5,-1.1875 -0.36459,-2.1745 -1.09375,-2.9609 -0.72917,-0.7865 -1.65365,-1.1797 -2.77344,-1.1797 z"
         style=""
         id="path4051" />
      <path
         d="m 222.86719,1025.895 c 0,-1.349 0.28776,-2.4284 0.86328,-3.2383 0.57552,-0.8099 1.3763,-1.2149 2.40234,-1.2149 0.59896,0 1.11718,0.1316 1.55469,0.3946 0.43749,0.263 0.79947,0.6341 1.08594,1.1132 l 0.10937,-1.3515 0.78906,0 0,8.3437 c 0,1.0886 -0.30078,1.9479 -0.90234,2.5782 -0.60157,0.6302 -1.43881,0.9453 -2.51172,0.9453 -0.40625,0 -0.83854,-0.05 -1.29687,-0.1485 -0.45834,-0.099 -0.85938,-0.2343 -1.20313,-0.4062 L 224,1032.1215 c 0.33333,0.1667 0.68489,0.293 1.05469,0.3789 0.36979,0.086 0.76562,0.1289 1.1875,0.1289 0.82291,0 1.444,-0.2369 1.86328,-0.7109 0.41926,-0.474 0.6289,-1.1328 0.6289,-1.9766 l 0,-1.0625 c -0.28646,0.4271 -0.64844,0.7565 -1.08593,0.9883 -0.43751,0.2318 -0.94792,0.3477 -1.53125,0.3477 -1.01563,0 -1.8112,-0.3776 -2.38672,-1.1328 -0.57552,-0.7552 -0.86328,-1.7631 -0.86328,-3.0235 z m 0.9375,0.164 c 0,1.0156 0.20833,1.8268 0.625,2.4336 0.41666,0.6068 1.03645,0.9102 1.85937,0.9102 0.60416,0 1.10807,-0.138 1.51172,-0.4141 0.40364,-0.276 0.71484,-0.6562 0.93359,-1.1406 l 0,-3.9219 c -0.20313,-0.4896 -0.5013,-0.8906 -0.89453,-1.2031 -0.39323,-0.3125 -0.90495,-0.4688 -1.53515,-0.4688 -0.82292,0 -1.44532,0.3386 -1.86719,1.0157 -0.42188,0.677 -0.63281,1.552 -0.63281,2.625 z"
         style=""
         id="path4053" />
      <path
         d="m 237.49219,1030.0512 c -0.0625,-0.2864 -0.10678,-0.5338 -0.13282,-0.7422 -0.026,-0.2083 -0.0391,-0.4192 -0.0391,-0.6328 -0.3125,0.4427 -0.72917,0.8099 -1.25,1.1016 -0.52084,0.2916 -1.10677,0.4375 -1.75781,0.4375 -0.82292,0 -1.46224,-0.2188 -1.91797,-0.6563 -0.45573,-0.4375 -0.68359,-1.0234 -0.68359,-1.7578 0,-0.7812 0.33724,-1.4062 1.01172,-1.875 0.67447,-0.4687 1.58463,-0.7031 2.73046,-0.7031 l 1.86719,0 0,-1.0469 c 0,-0.6042 -0.19401,-1.0781 -0.58203,-1.4219 -0.38803,-0.3437 -0.93099,-0.5156 -1.62891,-0.5156 -0.65104,0 -1.1914,0.1641 -1.62109,0.4922 -0.42969,0.3281 -0.64453,0.7292 -0.64453,1.2031 l -0.85938,-0.01 -0.0156,-0.047 c -0.0312,-0.6302 0.25651,-1.194 0.86328,-1.6914 0.60677,-0.4974 1.3789,-0.7461 2.31641,-0.7461 0.93228,0 1.68228,0.237 2.25,0.711 0.5677,0.4739 0.85155,1.1536 0.85156,2.039 l 0,4.1563 c -1e-5,0.2969 0.0169,0.5859 0.0508,0.8672 0.0339,0.2812 0.0898,0.5599 0.16797,0.8359 z m -3.07032,-0.6641 c 0.67188,0 1.26563,-0.1575 1.78125,-0.4726 0.51562,-0.3151 0.88802,-0.7175 1.11719,-1.207 l 0,-1.7657 -1.88281,0 c -0.84896,0 -1.52735,0.181 -2.03516,0.543 -0.50781,0.362 -0.76172,0.8112 -0.76172,1.3477 0,0.4583 0.15756,0.832 0.47266,1.1211 0.3151,0.289 0.7513,0.4335 1.30859,0.4335 z"
         style=""
         id="path4055" />
      <path
         d="m 241.52344,1021.5981 0.0859,1.3984 c 0.27084,-0.4948 0.63151,-0.8776 1.08204,-1.1484 0.45051,-0.2708 0.98827,-0.4063 1.61328,-0.4063 0.64583,0 1.18619,0.1563 1.62109,0.4688 0.43489,0.3125 0.74609,0.7891 0.93359,1.4297 0.25521,-0.5938 0.61849,-1.0586 1.08985,-1.3946 0.47134,-0.3359 1.04556,-0.5039 1.72265,-0.5039 0.90104,0 1.59635,0.2995 2.08594,0.8985 0.48957,0.5989 0.73436,1.526 0.73438,2.7812 l 0,4.9297 -0.9375,0 0,-4.9453 c -1e-5,-1.0417 -0.18361,-1.7773 -0.55078,-2.207 -0.3672,-0.4297 -0.87892,-0.6446 -1.53516,-0.6446 -0.72397,0 -1.28386,0.2266 -1.67969,0.6797 -0.39584,0.4532 -0.64063,1.0339 -0.73437,1.7422 -1e-5,0.036 0.001,0.089 0.004,0.1563 0.003,0.068 0.004,0.1172 0.004,0.1484 l 0,5.0703 -0.94531,0 0,-4.9453 c -1e-5,-1.0208 -0.18621,-1.7513 -0.5586,-2.1914 -0.3724,-0.4401 -0.88412,-0.6602 -1.53515,-0.6602 -0.66146,0 -1.1862,0.168 -1.57422,0.5039 -0.38802,0.336 -0.66016,0.7878 -0.81641,1.3555 l 0,5.9375 -0.94531,0 0,-8.4531 z"
         style=""
         id="path4057" />
      <path
         d="m 258.09375,1030.2153 c -1.0573,0 -1.9362,-0.3907 -2.63672,-1.1719 -0.70052,-0.7813 -1.05078,-1.7708 -1.05078,-2.9688 l 0,-0.4296 c 0,-1.2084 0.34766,-2.211 1.04297,-3.0079 0.69531,-0.7968 1.53776,-1.1953 2.52734,-1.1953 1.03646,0 1.85156,0.3282 2.44531,0.9844 0.59375,0.6563 0.89062,1.5313 0.89063,2.625 l 0,0.7969 -5.96875,0 0,0.2265 c 0,0.9532 0.2526,1.75 0.75781,2.3907 0.50521,0.6406 1.16927,0.9609 1.99219,0.9609 0.58333,0 1.08072,-0.081 1.49219,-0.2422 0.41145,-0.1614 0.76301,-0.3932 1.05468,-0.6953 l 0.39844,0.6406 c -0.31771,0.3334 -0.72006,0.5977 -1.20703,0.793 -0.48698,0.1953 -1.06641,0.293 -1.73828,0.293 z m -0.11719,-7.9766 c -0.69271,0 -1.27344,0.2643 -1.74219,0.793 -0.46875,0.5286 -0.74218,1.1914 -0.82031,1.9883 l 0.0156,0.039 4.95312,0 0,-0.2344 c 0,-0.7343 -0.21615,-1.3489 -0.64844,-1.8437 -0.43229,-0.4948 -1.01823,-0.7422 -1.75781,-0.7422 z"
         style=""
         id="path4059" />
      <path
         d="m 267.86719,1021.5981 0.0859,1.3984 c 0.27084,-0.4948 0.63151,-0.8776 1.08204,-1.1484 0.45051,-0.2708 0.98827,-0.4063 1.61328,-0.4063 0.64583,0 1.18619,0.1563 1.62109,0.4688 0.43489,0.3125 0.74609,0.7891 0.93359,1.4297 0.25521,-0.5938 0.61849,-1.0586 1.08985,-1.3946 0.47134,-0.3359 1.04556,-0.5039 1.72265,-0.5039 0.90104,0 1.59635,0.2995 2.08594,0.8985 0.48957,0.5989 0.73436,1.526 0.73438,2.7812 l 0,4.9297 -0.9375,0 0,-4.9453 c -10e-6,-1.0417 -0.18361,-1.7773 -0.55078,-2.207 -0.3672,-0.4297 -0.87892,-0.6446 -1.53516,-0.6446 -0.72397,0 -1.28386,0.2266 -1.67969,0.6797 -0.39584,0.4532 -0.64063,1.0339 -0.73437,1.7422 -10e-6,0.036 0.001,0.089 0.004,0.1563 0.003,0.068 0.004,0.1172 0.004,0.1484 l 0,5.0703 -0.94531,0 0,-4.9453 c -10e-6,-1.0208 -0.18621,-1.7513 -0.5586,-2.1914 -0.3724,-0.4401 -0.88412,-0.6602 -1.53515,-0.6602 -0.66146,0 -1.1862,0.168 -1.57422,0.5039 -0.38802,0.336 -0.66016,0.7878 -0.81641,1.3555 l 0,5.9375 -0.94531,0 0,-8.4531 z"
         style=""
         id="path4061" />
      <path
         d="m 286.61719,1030.0512 c -0.0625,-0.2864 -0.10678,-0.5338 -0.13282,-0.7422 -0.026,-0.2083 -0.0391,-0.4192 -0.0391,-0.6328 -0.3125,0.4427 -0.72917,0.8099 -1.25,1.1016 -0.52084,0.2916 -1.10677,0.4375 -1.75781,0.4375 -0.82292,0 -1.46224,-0.2188 -1.91797,-0.6563 -0.45573,-0.4375 -0.68359,-1.0234 -0.68359,-1.7578 0,-0.7812 0.33724,-1.4062 1.01172,-1.875 0.67447,-0.4687 1.58463,-0.7031 2.73046,-0.7031 l 1.86719,0 0,-1.0469 c 0,-0.6042 -0.19401,-1.0781 -0.58203,-1.4219 -0.38803,-0.3437 -0.93099,-0.5156 -1.62891,-0.5156 -0.65104,0 -1.1914,0.1641 -1.62109,0.4922 -0.42969,0.3281 -0.64453,0.7292 -0.64453,1.2031 l -0.85938,-0.01 -0.0156,-0.047 c -0.0312,-0.6302 0.25651,-1.194 0.86328,-1.6914 0.60677,-0.4974 1.3789,-0.7461 2.31641,-0.7461 0.93228,0 1.68228,0.237 2.25,0.711 0.5677,0.4739 0.85155,1.1536 0.85156,2.039 l 0,4.1563 c -10e-6,0.2969 0.0169,0.5859 0.0508,0.8672 0.0339,0.2812 0.0898,0.5599 0.16797,0.8359 z m -3.07032,-0.6641 c 0.67188,0 1.26563,-0.1575 1.78125,-0.4726 0.51562,-0.3151 0.88802,-0.7175 1.11719,-1.207 l 0,-1.7657 -1.88281,0 c -0.84896,0 -1.52735,0.181 -2.03516,0.543 -0.50781,0.362 -0.76172,0.8112 -0.76172,1.3477 0,0.4583 0.15756,0.832 0.47266,1.1211 0.3151,0.289 0.7513,0.4335 1.30859,0.4335 z"
         style=""
         id="path4063" />
      <path
         d="m 291.88281,1025.934 -1.07812,0 0,4.1172 -0.9375,0 0,-12.1875 0.9375,0 0,7.2656 0.98437,0 3.14063,-3.5312 1.09375,0 0.0156,0.039 -3.38281,3.8125 3.73437,4.5625 -0.0234,0.039 -1.07032,0 z"
         style=""
         id="path4065" />
      <path
         d="m 300.90625,1030.2153 c -1.0573,0 -1.9362,-0.3907 -2.63672,-1.1719 -0.70052,-0.7813 -1.05078,-1.7708 -1.05078,-2.9688 l 0,-0.4296 c 0,-1.2084 0.34766,-2.211 1.04297,-3.0079 0.69531,-0.7968 1.53776,-1.1953 2.52734,-1.1953 1.03646,0 1.85156,0.3282 2.44531,0.9844 0.59375,0.6563 0.89062,1.5313 0.89063,2.625 l 0,0.7969 -5.96875,0 0,0.2265 c 0,0.9532 0.2526,1.75 0.75781,2.3907 0.50521,0.6406 1.16927,0.9609 1.99219,0.9609 0.58333,0 1.08072,-0.081 1.49219,-0.2422 0.41145,-0.1614 0.76301,-0.3932 1.05468,-0.6953 l 0.39844,0.6406 c -0.31771,0.3334 -0.72006,0.5977 -1.20703,0.793 -0.48698,0.1953 -1.06641,0.293 -1.73828,0.293 z m -0.11719,-7.9766 c -0.69271,0 -1.27344,0.2643 -1.74219,0.793 -0.46875,0.5286 -0.74218,1.1914 -0.82031,1.9883 l 0.0156,0.039 4.95312,0 0,-0.2344 c 0,-0.7343 -0.21615,-1.3489 -0.64844,-1.8437 -0.43229,-0.4948 -1.01823,-0.7422 -1.75781,-0.7422 z"
         style=""
         id="path4067" />
      <path
         d="m 309.875,1022.4028 -0.69531,-0.047 c -0.58855,0 -1.07162,0.1654 -1.44922,0.4961 -0.37761,0.3307 -0.64714,0.7852 -0.8086,1.3633 l 0,5.8359 -0.9375,0 0,-8.4531 0.82032,0 0.11718,1.4062 0,0.094 c 0.24479,-0.5208 0.57292,-0.9271 0.98438,-1.2188 0.41145,-0.2916 0.90104,-0.4375 1.46875,-0.4375 0.11979,0 0.23567,0.01 0.34766,0.027 0.11197,0.018 0.20442,0.038 0.27734,0.059 z"
         style=""
         id="path4069" />
    </g>
    <rect
       style="color:#000000;fill:#c4c8b7;fill-opacity:1;fill-rule:nonzero;stroke:none;stroke-width:9.61807537;marker:none;visibility:visible;display:inline;overflow:visible;enable-background:accumulate"
       id="rect3011"
       width="280"
       height="5.0000362"
       x="30"
       y="983.36212" />
  </g>
</svg>
