<?xml version="1.0" encoding="UTF-8" standalone="no"?>
<!-- Created with Inkscape (http://www.inkscape.org/) -->

<svg
   xmlns:dc="http://purl.org/dc/elements/1.1/"
   xmlns:cc="http://creativecommons.org/ns#"
   xmlns:rdf="http://www.w3.org/1999/02/22-rdf-syntax-ns#"
   xmlns:svg="http://www.w3.org/2000/svg"
   xmlns="http://www.w3.org/2000/svg"
   xmlns:sodipodi="http://sodipodi.sourceforge.net/DTD/sodipodi-0.dtd"
   xmlns:inkscape="http://www.inkscape.org/namespaces/inkscape"
   width="24"
   height="24"
   id="svg2"
   version="1.1"
   inkscape:version="0.91 r13725"
   sodipodi:docname="icon.svg"
   inkscape:export-filename="C:\Users\streamshack\Documents\tree-view\build\group-open.png"
   inkscape:export-xdpi="180"
   inkscape:export-ydpi="180">
  <defs
     id="defs4" />
  <sodipodi:namedview
     id="base"
     pagecolor="#ffffff"
     bordercolor="#666666"
     borderopacity="1.0"
     inkscape:pageopacity="0.0"
     inkscape:pageshadow="2"
     inkscape:zoom="22.627417"
     inkscape:cx="12.907411"
     inkscape:cy="12.387069"
     inkscape:document-units="px"
     inkscape:current-layer="g3801"
     showgrid="true"
     inkscape:window-width="1680"
     inkscape:window-height="1028"
     inkscape:window-x="-8"
     inkscape:window-y="-8"
     inkscape:window-maximized="1"
     inkscape:snap-bbox="true"
     inkscape:object-nodes="true"
     inkscape:snap-smooth-nodes="true">
    <inkscape:grid
       type="xygrid"
       id="grid2993"
       empspacing="5"
       visible="true"
       enabled="true"
       snapvisiblegridlinesonly="true" />
  </sodipodi:namedview>
  <metadata
     id="metadata7">
    <rdf:RDF>
      <cc:Work
         rdf:about="">
        <dc:format>image/svg+xml</dc:format>
        <dc:type
           rdf:resource="http://purl.org/dc/dcmitype/StillImage" />
        <dc:title />
      </cc:Work>
    </rdf:RDF>
  </metadata>
  <g
     inkscape:label="Layer 1"
     inkscape:groupmode="layer"
     id="layer1"
     transform="translate(0,-1028.3622)">
    <g
       id="g3801"
       transform="translate(-4,4)">
      <path
         id="path4491"
         transform="translate(4,1024.3622)"
         d="m 10,4 c -3.301864,0 -6,2.6982 -6,6 0,3.3019 2.698136,6 6,6 1.291082,0 2.487492,-0.417348 3.46875,-1.117188 l 4.773242,4.773219 1.416015,-1.414062 -4.775195,-4.773219 C 15.58362,12.487081 16,11.292072 16,10 16,6.6982 13.301864,4 10,4 Z m 0,2 c 2.220984,0 4,1.779 4,4 0,2.221 -1.779016,4 -4,4 C 7.779016,14 6,12.221 6,10 6,7.779 7.779016,6 10,6 Z"
         style="color:#000000;clip-rule:nonzero;display:inline;overflow:visible;visibility:visible;opacity:1;isolation:auto;mix-blend-mode:normal;color-interpolation:sRGB;color-interpolation-filters:linearRGB;solid-color:#000000;solid-opacity:1;fill:none;fill-opacity:1;fill-rule:nonzero;stroke:#6a6553;stroke-width:2;stroke-linecap:round;stroke-linejoin:round;stroke-miterlimit:4;stroke-dasharray:none;stroke-dashoffset:0;stroke-opacity:1;marker:none;color-rendering:auto;image-rendering:auto;shape-rendering:auto;text-rendering:auto;enable-background:accumulate"
         inkscape:connector-curvature="0"
         sodipodi:nodetypes="sssccccsssssss" />
      <path
         style="color:#000000;clip-rule:nonzero;display:inline;overflow:visible;visibility:visible;opacity:1;isolation:auto;mix-blend-mode:normal;color-interpolation:sRGB;color-interpolation-filters:linearRGB;solid-color:#000000;solid-opacity:1;fill:#ffdc00;fill-opacity:1;fill-rule:evenodd;stroke:none;stroke-width:0.5;stroke-linecap:butt;stroke-linejoin:miter;stroke-miterlimit:4;stroke-dasharray:none;stroke-dashoffset:0;stroke-opacity:1;marker:none;color-rendering:auto;image-rendering:auto;shape-rendering:auto;text-rendering:auto;enable-background:accumulate"
         d="m 10,4 c -3.301864,0 -6,2.6982 -6,6 0,3.3019 2.698136,6 6,6 1.291082,0 2.487492,-0.417348 3.46875,-1.117188 l 4.773242,4.773219 1.416015,-1.414062 -4.775195,-4.773219 C 15.58362,12.487081 16,11.292072 16,10 16,6.6982 13.301864,4 10,4 Z m 0,2 c 2.220984,0 4,1.779 4,4 0,2.221 -1.779016,4 -4,4 C 7.779016,14 6,12.221 6,10 6,7.779 7.779016,6 10,6 Z"
         transform="translate(4,1024.3622)"
         id="path4267"
         inkscape:connector-curvature="0"
         sodipodi:nodetypes="sssccccsssssss" />
      <path
         style="color:#000000;clip-rule:nonzero;display:inline;overflow:visible;visibility:visible;opacity:1;isolation:auto;mix-blend-mode:normal;color-interpolation:sRGB;color-interpolation-filters:linearRGB;solid-color:#000000;solid-opacity:1;fill:#ffea63;fill-opacity:1;fill-rule:evenodd;stroke:none;stroke-width:1;stroke-linecap:butt;stroke-linejoin:miter;stroke-miterlimit:4;stroke-dasharray:none;stroke-dashoffset:0;stroke-opacity:1;marker:none;color-rendering:auto;image-rendering:auto;shape-rendering:auto;text-rendering:auto;enable-background:accumulate"
         d="M 10 4 C 7.840022 4 5.9436651 5.1579075 4.8867188 6.8808594 L 6.703125 7.7285156 C 7.4221584 6.682689 8.6254858 6 10 6 C 12.220984 6 14 7.779 14 10 C 14 10.370453 13.93458 10.720892 13.841797 11.060547 L 15.677734 11.916016 C 15.883742 11.31379 16 10.670826 16 10 C 16 6.6982 13.301864 4 10 4 z "
         transform="translate(4,1024.3622)"
         id="rect4498" />
    </g>
  </g>
</svg>
